<svg width="120" height="40" viewBox="0 0 120 40" fill="none" xmlns="http://www.w3.org/2000/svg">
<path d="M120 0H0V40H120V0Z" fill="#393E46"/>
<path d="M25.316 29.2H21.445V10.671H29.91C33.497 10.671 35.665 12.971 35.665 16.606C35.665 18.283 34.736 22.516 29.755 22.516H25.316V29.2ZM28.903 19.316C31.793 19.316 31.793 17.251 31.793 16.426C31.793 14.62 30.786 13.871 28.386 13.871H25.315V19.316H28.902H28.903Z" fill="white"/>
<path d="M38.348 15.471H41.806V17.845H41.857C42.606 16.451 43.431 15.109 45.625 15.109C45.8591 15.1134 46.0928 15.1307 46.325 15.161V18.826C45.9828 18.7823 45.6378 18.7649 45.293 18.774C42.48 18.774 41.964 20.529 41.964 22.051V29.2H38.348V15.471Z" fill="white"/>
<path d="M54.117 29.562C50.427 29.562 47.098 27.291 47.098 22.336C47.098 17.381 50.427 15.11 54.117 15.11C57.807 15.11 61.136 17.381 61.136 22.336C61.136 27.291 57.807 29.562 54.117 29.562ZM54.117 18.155C51.33 18.155 50.817 20.581 50.817 22.336C50.817 24.091 51.333 26.517 54.117 26.517C56.901 26.517 57.417 24.091 57.417 22.336C57.417 20.581 56.904 18.155 54.117 18.155Z" fill="white"/>
<path d="M67.845 29.201H64.232V18.052H62.245V15.471H64.232V14.361C64.232 11.522 65.78 10.438 68.258 10.438C69.316 10.438 69.806 10.464 70.116 10.49V13.406H69.11C67.871 13.406 67.845 13.793 67.845 14.929V15.471H70.194V18.052H67.845V29.201Z" fill="white"/>
<path d="M75.975 13.842H72.362V10.487H75.975V13.842ZM75.975 15.468V29.197H72.362V15.472L75.975 15.468Z" fill="white"/>
<path d="M83.148 29.2H79.535V10.671H83.148V29.2Z" fill="white"/>
<path d="M98.4009 25.175C98.0466 26.4859 97.2542 27.636 96.1556 28.4342C95.0569 29.2323 93.7182 29.6303 92.362 29.562C88.491 29.562 85.523 27.704 85.523 22.052C85.523 20.4 86.0909 15.11 92.1039 15.11C94.8139 15.11 98.556 16.4 98.556 22.671V23.316H89.136C89.236 24.348 89.446 26.671 92.362 26.671C92.8589 26.7034 93.3531 26.575 93.7714 26.3049C94.1898 26.0348 94.51 25.6372 94.685 25.171L98.4009 25.175ZM94.8389 20.969C94.6329 18.75 93.2129 18.079 92.0519 18.079C90.3519 18.079 89.445 19.163 89.239 20.969H94.8389Z" fill="white"/>
</svg>
